<svg id="Layer_1" data-name="Layer 1" xmlns="http://www.w3.org/2000/svg" xmlns:xlink="http://www.w3.org/1999/xlink" viewBox="0 0 566.96 605"><defs><style>.cls-1{fill:url(#linear-gradient);}.cls-2{fill:url(#linear-gradient-2);}</style><linearGradient id="linear-gradient" x1="-50.88" y1="637.27" x2="333.2" y2="130.78" gradientUnits="userSpaceOnUse"><stop offset="0" stop-color="#9518fc"/><stop offset="1" stop-color="#ce18fc"/></linearGradient><linearGradient id="linear-gradient-2" x1="103.32" y1="739.78" x2="487.4" y2="233.28" xlink:href="#linear-gradient"/></defs><circle class="cls-1" cx="283.48" cy="196.35" r="196.35"/><path class="cls-2" d="M504.85,349.22a80.08,80.08,0,0,0-52.62,19.39,228.2,228.2,0,0,1-299.46,0,80.08,80.08,0,0,0-52.62-19.39h0A81.14,81.14,0,0,0,19,430.36v93.51A81.13,81.13,0,0,0,100.15,605h404.7A81.13,81.13,0,0,0,586,523.87V430.36a81.14,81.14,0,0,0-81.13-81.14Z" transform="translate(-19.02)"/></svg>