<svg id="Layer_1" data-name="Layer 1" xmlns="http://www.w3.org/2000/svg" xmlns:xlink="http://www.w3.org/1999/xlink" viewBox="0 0 605 605"><defs><style>.cls-1{fill:#f4f4f4;}.cls-2{fill:url(#linear-gradient);}.cls-3{fill:#f800ff;}.cls-4{fill:#ff00b7;}.cls-5{fill:url(#linear-gradient-2);}.cls-6{fill:url(#linear-gradient-3);}.cls-7{fill:url(#linear-gradient-4);}.cls-8{fill:url(#linear-gradient-5);}.cls-9{fill:url(#linear-gradient-6);}.cls-10{fill:url(#linear-gradient-7);}.cls-11{fill:url(#linear-gradient-8);}.cls-12{fill:url(#linear-gradient-9);}.cls-13{fill:url(#linear-gradient-10);}.cls-14{fill:url(#linear-gradient-11);}.cls-15{fill:url(#linear-gradient-12);}.cls-16{fill:url(#linear-gradient-13);}.cls-17{fill:url(#linear-gradient-14);}.cls-18{fill:url(#linear-gradient-15);}.cls-19{fill:url(#linear-gradient-16);}.cls-20{fill:url(#linear-gradient-17);}.cls-21{fill:url(#linear-gradient-18);}.cls-22{fill:url(#linear-gradient-19);}.cls-23{fill:url(#linear-gradient-20);}.cls-24{fill:url(#linear-gradient-21);}.cls-25{fill:url(#linear-gradient-22);}.cls-26{fill:url(#linear-gradient-23);}.cls-27{fill:url(#linear-gradient-24);}.cls-28{fill:url(#linear-gradient-25);}.cls-29{fill:url(#linear-gradient-26);}.cls-30{fill:url(#linear-gradient-27);}</style><linearGradient id="linear-gradient" y1="302.5" x2="605" y2="302.5" gradientUnits="userSpaceOnUse"><stop offset="0" stop-color="#9518fc"/><stop offset="1" stop-color="#623cdd"/></linearGradient><linearGradient id="linear-gradient-2" x1="57.2" y1="1181.43" x2="686.52" y2="511.11" gradientTransform="translate(0 -474)" xlink:href="#linear-gradient"/><linearGradient id="linear-gradient-3" x1="185.87" y1="1336.98" x2="834.42" y2="646.17" gradientTransform="translate(0 -474)" xlink:href="#linear-gradient"/><linearGradient id="linear-gradient-4" x1="114.75" y1="1231.69" x2="726.98" y2="579.56" gradientTransform="translate(0 -474)" xlink:href="#linear-gradient"/><linearGradient id="linear-gradient-5" x1="53.46" y1="1174.15" x2="665.69" y2="522.03" gradientTransform="translate(0 -474)" xlink:href="#linear-gradient"/><linearGradient id="linear-gradient-6" x1="164.66" y1="1278.55" x2="776.89" y2="626.42" gradientTransform="translate(0 -474)" xlink:href="#linear-gradient"/><linearGradient id="linear-gradient-7" x1="123.26" y1="1239.68" x2="735.49" y2="587.55" gradientTransform="translate(0 -474)" xlink:href="#linear-gradient"/><linearGradient id="linear-gradient-8" x1="48.8" y1="1169.78" x2="661.03" y2="517.65" gradientTransform="translate(0 -474)" xlink:href="#linear-gradient"/><linearGradient id="linear-gradient-9" x1="123" y1="1239.45" x2="735.23" y2="587.32" gradientTransform="translate(0 -474)" xlink:href="#linear-gradient"/><linearGradient id="linear-gradient-10" x1="104.45" y1="1222.02" x2="716.68" y2="569.9" gradientTransform="translate(0 -474)" xlink:href="#linear-gradient"/><linearGradient id="linear-gradient-11" x1="197.39" y1="1309.27" x2="809.61" y2="657.15" gradientTransform="translate(0 -474)" xlink:href="#linear-gradient"/><linearGradient id="linear-gradient-12" x1="159.58" y1="1273.79" x2="771.81" y2="621.66" gradientTransform="translate(0 -474)" xlink:href="#linear-gradient"/><linearGradient id="linear-gradient-13" x1="129.03" y1="1245.1" x2="741.26" y2="592.97" gradientTransform="translate(0 -474)" xlink:href="#linear-gradient"/><linearGradient id="linear-gradient-14" x1="174.27" y1="1302.1" x2="786.5" y2="649.98" gradientTransform="translate(-237.5 -711.5)" xlink:href="#linear-gradient"/><linearGradient id="linear-gradient-15" x1="277.71" y1="1399.22" x2="889.94" y2="747.09" gradientTransform="translate(-237.5 -711.5)" xlink:href="#linear-gradient"/><linearGradient id="linear-gradient-16" x1="-229.48" y1="908.52" x2="382.75" y2="256.39" gradientTransform="translate(0 -474)" xlink:href="#linear-gradient"/><linearGradient id="linear-gradient-17" x1="-168.2" y1="966.06" x2="444.03" y2="313.93" gradientTransform="translate(0 -474)" xlink:href="#linear-gradient"/><linearGradient id="linear-gradient-18" x1="-189.81" y1="945.77" x2="422.42" y2="293.64" gradientTransform="translate(0 -474)" xlink:href="#linear-gradient"/><linearGradient id="linear-gradient-19" x1="-178.28" y1="956.59" x2="433.95" y2="304.46" gradientTransform="translate(0 -474)" xlink:href="#linear-gradient"/><linearGradient id="linear-gradient-20" x1="-133.68" y1="998.47" x2="478.55" y2="346.34" gradientTransform="translate(0 -474)" xlink:href="#linear-gradient"/><linearGradient id="linear-gradient-21" x1="-207.86" y1="928.82" x2="404.37" y2="276.69" gradientTransform="translate(0 -474)" xlink:href="#linear-gradient"/><linearGradient id="linear-gradient-22" x1="-129.6" y1="1002.29" x2="482.63" y2="350.16" gradientTransform="translate(0 -474)" xlink:href="#linear-gradient"/><linearGradient id="linear-gradient-23" x1="-162.82" y1="971.11" x2="449.41" y2="318.98" gradientTransform="translate(0 -474)" xlink:href="#linear-gradient"/><linearGradient id="linear-gradient-24" x1="-154.88" y1="978.56" x2="457.35" y2="326.43" gradientTransform="translate(0 -474)" xlink:href="#linear-gradient"/><linearGradient id="linear-gradient-25" x1="-94.46" y1="1035.28" x2="517.77" y2="383.16" gradientTransform="translate(0 -474)" xlink:href="#linear-gradient"/><linearGradient id="linear-gradient-26" x1="23.15" y1="1145.69" x2="635.38" y2="493.57" gradientTransform="translate(0 -474)" xlink:href="#linear-gradient"/><linearGradient id="linear-gradient-27" x1="170.84" y1="1298.88" x2="783.07" y2="646.76" gradientTransform="translate(-237.5 -711.5)" xlink:href="#linear-gradient"/></defs><rect class="cls-1" width="605" height="605" rx="26.46"/><rect class="cls-1" width="605" height="605" rx="26.46"/><path class="cls-2" d="M605,26c0-.28,0-.57,0-.85a1.94,1.94,0,0,1,0-.24A26.47,26.47,0,0,0,582.57.3h0c-.43-.06-.87-.12-1.3-.16l-.27,0c-.35,0-.71-.07-1.07-.08l-.52,0-.8,0H26l-.85,0-.24,0A26.47,26.47,0,0,0,.3,22.43h0c-.06.43-.12.87-.16,1.3,0,.09,0,.18,0,.27,0,.35-.07.71-.08,1.07,0,.17,0,.35,0,.52s0,.53,0,.8H0V578.54A26.46,26.46,0,0,0,26.46,605H578.54A26.46,26.46,0,0,0,605,578.54V26.46C605,26.29,605,26.13,605,26Zm-9.9,543.54a25.59,25.59,0,0,1-25.59,25.59H35.5A25.59,25.59,0,0,1,9.91,569.5V60H595.09Z"/><rect class="cls-1" x="21.63" y="21.1" width="478.56" height="17.73" rx="8.86"/><rect class="cls-1" x="510.19" y="21.1" width="17.73" height="17.73" rx="8.86"/><rect class="cls-3" x="537.92" y="21.1" width="17.73" height="17.73" rx="8.86"/><rect class="cls-4" x="565.64" y="21.1" width="17.73" height="17.73" rx="8.86"/><rect class="cls-5" x="39.36" y="518.17" width="346.49" height="47.47" rx="23.73"/><rect class="cls-6" x="408.96" y="518.17" width="156.69" height="47.47" rx="23.73"/><path class="cls-7" d="M499.14,308.73h57.72a8.78,8.78,0,0,1,8.78,8.78h0a8.78,8.78,0,0,1-8.78,8.77H499.14a8.78,8.78,0,0,1-8.78-8.77h0A8.78,8.78,0,0,1,499.14,308.73Z"/><path class="cls-8" d="M363.81,308.73h97.77a8.78,8.78,0,0,1,8.78,8.78h0a8.78,8.78,0,0,1-8.78,8.77H363.81a8.78,8.78,0,0,1-8.78-8.77h0A8.78,8.78,0,0,1,363.81,308.73Z"/><path class="cls-9" d="M518.4,398.49h38.46a8.78,8.78,0,0,1,8.78,8.77h0a8.78,8.78,0,0,1-8.78,8.78H518.4a8.78,8.78,0,0,1-8.78-8.78h0A8.78,8.78,0,0,1,518.4,398.49Z"/><path class="cls-10" d="M418.84,368.57h138a8.78,8.78,0,0,1,8.78,8.78h0a8.78,8.78,0,0,1-8.78,8.77h-138a8.78,8.78,0,0,1-8.78-8.77h0a8.78,8.78,0,0,1,8.78-8.78Z"/><path class="cls-11" d="M315.29,338.65H436.41a8.78,8.78,0,0,1,8.78,8.77h0a8.78,8.78,0,0,1-8.78,8.78H315.29a8.78,8.78,0,0,1-8.78-8.78h0A8.78,8.78,0,0,1,315.29,338.65Z"/><path class="cls-12" d="M474,338.65h82.9a8.78,8.78,0,0,1,8.78,8.77h0a8.78,8.78,0,0,1-8.78,8.78H474a8.78,8.78,0,0,1-8.78-8.78h0A8.78,8.78,0,0,1,474,338.65Z"/><path class="cls-13" d="M367.87,398.49h113a8.78,8.78,0,0,1,8.78,8.77h0a8.78,8.78,0,0,1-8.78,8.78h-113a8.78,8.78,0,0,1-8.78-8.78h0A8.78,8.78,0,0,1,367.87,398.49Z"/><path class="cls-14" d="M529.19,458.33h27.67a8.78,8.78,0,0,1,8.78,8.77h0a8.78,8.78,0,0,1-8.78,8.78H529.19a8.78,8.78,0,0,1-8.78-8.78h0A8.78,8.78,0,0,1,529.19,458.33Z"/><path class="cls-15" d="M443.14,428.41H556.87a8.78,8.78,0,0,1,8.78,8.77h0a8.78,8.78,0,0,1-8.78,8.78H443.14a8.78,8.78,0,0,1-8.78-8.78h0A8.78,8.78,0,0,1,443.14,428.41Z"/><path class="cls-16" d="M337.21,458.33H491.63a8.78,8.78,0,0,1,8.78,8.77h0a8.78,8.78,0,0,1-8.78,8.78H337.21a8.78,8.78,0,0,1-8.78-8.78h0A8.78,8.78,0,0,1,337.21,458.33Z"/><rect class="cls-17" x="39.36" y="308.73" width="167.15" height="167.15" rx="8.78"/><path class="cls-18" d="M330.32,416H257.57a8.77,8.77,0,0,1-8.77-8.77h0a8.78,8.78,0,0,1,8.77-8.78h72.75a8.78,8.78,0,0,1,8.77,8.78h0A8.77,8.77,0,0,1,330.32,416Zm-52.59-59.8H257.57a8.77,8.77,0,0,1-8.77-8.77h0a8.78,8.78,0,0,1,8.77-8.78h20.16a8.78,8.78,0,0,1,8.78,8.78h0A8.78,8.78,0,0,1,277.73,356.2ZM335,317.5h0a8.78,8.78,0,0,1-8.78,8.77H257.57a8.77,8.77,0,0,1-8.77-8.77h0a8.78,8.78,0,0,1,8.77-8.78h68.68A8.78,8.78,0,0,1,335,317.5ZM299.65,475.88H257.57a8.77,8.77,0,0,1-8.77-8.77h0a8.78,8.78,0,0,1,8.77-8.78h42.08a8.78,8.78,0,0,1,8.78,8.78h0A8.78,8.78,0,0,1,299.65,475.88ZM405.58,446h-148a8.77,8.77,0,0,1-8.77-8.77h0a8.78,8.78,0,0,1,8.77-8.78h148a8.78,8.78,0,0,1,8.78,8.78h0A8.78,8.78,0,0,1,405.58,446Zm-24.3-59.84H257.57a8.77,8.77,0,0,1-8.77-8.77h0a8.78,8.78,0,0,1,8.77-8.78H381.28a8.78,8.78,0,0,1,8.78,8.78h0a8.78,8.78,0,0,1-8.78,8.73Z"/><path class="cls-19" d="M48.14,99.29h57.72a8.78,8.78,0,0,1,8.78,8.78h0a8.78,8.78,0,0,1-8.78,8.78H48.14a8.78,8.78,0,0,1-8.78-8.78h0A8.78,8.78,0,0,1,48.14,99.29Z"/><path class="cls-20" d="M143.42,99.29h97.77a8.78,8.78,0,0,1,8.78,8.78h0a8.78,8.78,0,0,1-8.78,8.78H143.42a8.78,8.78,0,0,1-8.78-8.78h0A8.78,8.78,0,0,1,143.42,99.29Z"/><rect class="cls-21" x="39.36" y="189.05" width="56.02" height="17.55" rx="8.77"/><rect class="cls-22" x="39.36" y="159.13" width="155.58" height="17.55" rx="8.77"/><rect class="cls-23" x="159.82" y="129.21" width="138.68" height="17.55" rx="8.77"/><rect class="cls-24" x="39.36" y="129.21" width="100.46" height="17.55" rx="8.77"/><rect class="cls-25" x="115.38" y="189.05" width="130.53" height="17.55" rx="8.77"/><path class="cls-26" d="M48.14,248.89H75.81a8.78,8.78,0,0,1,8.78,8.78h0a8.78,8.78,0,0,1-8.78,8.77H48.14a8.78,8.78,0,0,1-8.78-8.77h0a8.78,8.78,0,0,1,8.78-8.78Z"/><rect class="cls-27" x="39.36" y="218.97" width="131.29" height="17.55" rx="8.77"/><path class="cls-28" d="M113.37,248.89H267.79a8.78,8.78,0,0,1,8.78,8.78h0a8.78,8.78,0,0,1-8.78,8.77H113.37a8.78,8.78,0,0,1-8.78-8.77h0a8.78,8.78,0,0,1,8.78-8.78Z"/><rect class="cls-29" x="398.49" y="99.29" width="167.15" height="167.15" rx="8.78"/><path class="cls-30" d="M274.68,206.6h72.75a8.77,8.77,0,0,0,8.77-8.77h0a8.78,8.78,0,0,0-8.77-8.78H274.68a8.78,8.78,0,0,0-8.77,8.78h0A8.77,8.77,0,0,0,274.68,206.6Zm52.59-59.84h20.16A8.77,8.77,0,0,0,356.2,138h0a8.78,8.78,0,0,0-8.77-8.78H327.27a8.78,8.78,0,0,0-8.78,8.78h0a8.78,8.78,0,0,0,8.78,8.76ZM270,108.07h0a8.78,8.78,0,0,0,8.78,8.77h68.68a8.77,8.77,0,0,0,8.77-8.77h0a8.78,8.78,0,0,0-8.77-8.78H278.75a8.78,8.78,0,0,0-8.78,8.78Zm35.38,158.37h42.08a8.77,8.77,0,0,0,8.77-8.77h0a8.78,8.78,0,0,0-8.77-8.78H305.35a8.78,8.78,0,0,0-8.78,8.78h0a8.78,8.78,0,0,0,8.78,8.77Zm-106-29.94h148a8.77,8.77,0,0,0,8.77-8.77h0a8.78,8.78,0,0,0-8.77-8.78h-148a8.78,8.78,0,0,0-8.78,8.78h0A8.78,8.78,0,0,0,199.42,236.5Zm24.3-59.84H347.43a8.77,8.77,0,0,0,8.77-8.77h0a8.78,8.78,0,0,0-8.77-8.78H223.72a8.78,8.78,0,0,0-8.78,8.78h0a8.78,8.78,0,0,0,8.77,8.79h0Z"/></svg>