<svg id="Layer_1" data-name="Layer 1" xmlns="http://www.w3.org/2000/svg" xmlns:xlink="http://www.w3.org/1999/xlink" viewBox="0 0 540 540.01"><defs><style>.cls-1{fill:#d3c5ff;}.cls-2{fill:url(#linear-gradient);}.cls-3{fill:#ce18fc;}</style><linearGradient id="linear-gradient" x1="810" y1="768.46" x2="1080" y2="768.46" gradientTransform="translate(-540 -538)" gradientUnits="userSpaceOnUse"><stop offset="0" stop-color="#9518fc"/><stop offset="1" stop-color="#9518fc"/></linearGradient></defs><path class="cls-1" d="M270,96.65V0C120.88,0,0,120.88,0,270,0,377,62.28,469.54,152.59,513.21l42-87.05A173.38,173.38,0,0,1,270,96.65Z"/><path class="cls-2" d="M540,270a269.22,269.22,0,0,1-79.08,190.93l-68.34-68.34A173.35,173.35,0,0,0,270,96.65V0C419.12,0,540,120.88,540,270Z"/><path class="cls-3" d="M460.92,460.92A270.22,270.22,0,0,1,152.59,513.2l42-87.05a173.51,173.51,0,0,0,198-33.57Z"/></svg>